<mxfile host="app.diagrams.net" modified="2022-11-15T19:37:37.600Z" agent="5.0 (Windows NT 10.0; Win64; x64) AppleWebKit/537.36 (KHTML, like Gecko) Chrome/107.0.0.0 Safari/537.36" etag="cMzDENRN3Ihyp1cgPoVY" version="20.5.3" type="github">
  <diagram id="C5RBs43oDa-KdzZeNtuy" name="Page-1">
    <mxGraphModel dx="2605" dy="2152" grid="1" gridSize="10" guides="1" tooltips="1" connect="1" arrows="1" fold="1" page="1" pageScale="1" pageWidth="827" pageHeight="1169" math="0" shadow="0">
      <root>
        <mxCell id="WIyWlLk6GJQsqaUBKTNV-0" />
        <mxCell id="WIyWlLk6GJQsqaUBKTNV-1" parent="WIyWlLk6GJQsqaUBKTNV-0" />
        <mxCell id="YmTnPPPusnQht9802NCu-105" value="" style="shape=flexArrow;endArrow=classic;html=1;rounded=1;dashed=1;strokeWidth=2;fontSize=12;fillColor=#f8cecc;strokeColor=#b85450;shadow=1;" edge="1" parent="WIyWlLk6GJQsqaUBKTNV-1">
          <mxGeometry width="50" height="50" relative="1" as="geometry">
            <mxPoint x="440" y="1390" as="sourcePoint" />
            <mxPoint x="440" y="790" as="targetPoint" />
          </mxGeometry>
        </mxCell>
        <mxCell id="YmTnPPPusnQht9802NCu-104" value="Scheduler" style="rounded=0;whiteSpace=wrap;html=1;fontSize=18;fillColor=#dae8fc;strokeColor=#6c8ebf;" vertex="1" parent="WIyWlLk6GJQsqaUBKTNV-1">
          <mxGeometry x="540" y="790" width="279" height="600" as="geometry" />
        </mxCell>
        <mxCell id="WIyWlLk6GJQsqaUBKTNV-3" value="I2C Lux Sensor" style="rounded=1;whiteSpace=wrap;html=1;fontSize=12;glass=0;strokeWidth=1;shadow=0;" parent="WIyWlLk6GJQsqaUBKTNV-1" vertex="1">
          <mxGeometry x="120" y="80" width="160" height="40" as="geometry" />
        </mxCell>
        <mxCell id="YmTnPPPusnQht9802NCu-0" value="" style="rounded=1;whiteSpace=wrap;html=1;fontSize=12;glass=0;strokeWidth=1;shadow=0;" vertex="1" parent="WIyWlLk6GJQsqaUBKTNV-1">
          <mxGeometry x="160" y="170" width="600" height="190" as="geometry" />
        </mxCell>
        <mxCell id="YmTnPPPusnQht9802NCu-1" value="I2C - Shield" style="rounded=0;whiteSpace=wrap;html=1;" vertex="1" parent="WIyWlLk6GJQsqaUBKTNV-1">
          <mxGeometry x="185" y="190" width="145" height="50" as="geometry" />
        </mxCell>
        <mxCell id="YmTnPPPusnQht9802NCu-5" style="edgeStyle=orthogonalEdgeStyle;rounded=0;orthogonalLoop=1;jettySize=auto;html=1;exitX=0.5;exitY=1;exitDx=0;exitDy=0;" edge="1" parent="WIyWlLk6GJQsqaUBKTNV-1" source="WIyWlLk6GJQsqaUBKTNV-3" target="YmTnPPPusnQht9802NCu-1">
          <mxGeometry relative="1" as="geometry" />
        </mxCell>
        <mxCell id="YmTnPPPusnQht9802NCu-7" style="edgeStyle=orthogonalEdgeStyle;rounded=0;orthogonalLoop=1;jettySize=auto;html=1;exitX=0.75;exitY=1;exitDx=0;exitDy=0;entryX=0.75;entryY=0;entryDx=0;entryDy=0;" edge="1" parent="WIyWlLk6GJQsqaUBKTNV-1" source="WIyWlLk6GJQsqaUBKTNV-3" target="YmTnPPPusnQht9802NCu-1">
          <mxGeometry relative="1" as="geometry" />
        </mxCell>
        <mxCell id="YmTnPPPusnQht9802NCu-6" style="edgeStyle=orthogonalEdgeStyle;rounded=0;orthogonalLoop=1;jettySize=auto;html=1;exitX=0.25;exitY=1;exitDx=0;exitDy=0;entryX=0.25;entryY=0;entryDx=0;entryDy=0;" edge="1" parent="WIyWlLk6GJQsqaUBKTNV-1" source="WIyWlLk6GJQsqaUBKTNV-3" target="YmTnPPPusnQht9802NCu-1">
          <mxGeometry relative="1" as="geometry" />
        </mxCell>
        <mxCell id="YmTnPPPusnQht9802NCu-8" style="edgeStyle=orthogonalEdgeStyle;rounded=0;orthogonalLoop=1;jettySize=auto;html=1;exitX=0;exitY=1;exitDx=0;exitDy=0;entryX=0;entryY=0;entryDx=0;entryDy=0;" edge="1" parent="WIyWlLk6GJQsqaUBKTNV-1" source="WIyWlLk6GJQsqaUBKTNV-3" target="YmTnPPPusnQht9802NCu-1">
          <mxGeometry relative="1" as="geometry" />
        </mxCell>
        <mxCell id="YmTnPPPusnQht9802NCu-9" value="&lt;font style=&quot;font-size: 9px;&quot;&gt;GND&lt;/font&gt;" style="text;html=1;strokeColor=none;fillColor=none;align=center;verticalAlign=middle;whiteSpace=wrap;rounded=0;" vertex="1" parent="WIyWlLk6GJQsqaUBKTNV-1">
          <mxGeometry x="185" y="190" width="20" height="10" as="geometry" />
        </mxCell>
        <mxCell id="YmTnPPPusnQht9802NCu-27" style="edgeStyle=orthogonalEdgeStyle;rounded=0;orthogonalLoop=1;jettySize=auto;html=1;exitX=0;exitY=0;exitDx=0;exitDy=0;dashed=1;strokeWidth=2;fontSize=18;entryX=0.25;entryY=1;entryDx=0;entryDy=0;" edge="1" parent="WIyWlLk6GJQsqaUBKTNV-1" source="YmTnPPPusnQht9802NCu-10" target="YmTnPPPusnQht9802NCu-29">
          <mxGeometry relative="1" as="geometry">
            <Array as="points">
              <mxPoint x="220" y="170" />
              <mxPoint x="260" y="170" />
              <mxPoint x="260" y="325" />
              <mxPoint x="140" y="325" />
              <mxPoint x="140" y="730" />
              <mxPoint x="310" y="730" />
            </Array>
          </mxGeometry>
        </mxCell>
        <mxCell id="YmTnPPPusnQht9802NCu-10" value="&lt;font style=&quot;font-size: 9px;&quot;&gt;DATA&lt;/font&gt;" style="text;html=1;strokeColor=none;fillColor=none;align=center;verticalAlign=middle;whiteSpace=wrap;rounded=0;" vertex="1" parent="WIyWlLk6GJQsqaUBKTNV-1">
          <mxGeometry x="220" y="190" width="20" height="10" as="geometry" />
        </mxCell>
        <mxCell id="YmTnPPPusnQht9802NCu-11" value="&lt;font style=&quot;font-size: 9px;&quot;&gt;CLOCK&lt;/font&gt;" style="text;html=1;strokeColor=none;fillColor=none;align=center;verticalAlign=middle;whiteSpace=wrap;rounded=0;" vertex="1" parent="WIyWlLk6GJQsqaUBKTNV-1">
          <mxGeometry x="260" y="190" width="20" height="10" as="geometry" />
        </mxCell>
        <mxCell id="YmTnPPPusnQht9802NCu-12" value="&lt;font style=&quot;font-size: 9px;&quot;&gt;VCC&lt;/font&gt;" style="text;html=1;strokeColor=none;fillColor=none;align=center;verticalAlign=middle;whiteSpace=wrap;rounded=0;" vertex="1" parent="WIyWlLk6GJQsqaUBKTNV-1">
          <mxGeometry x="290" y="190" width="20" height="10" as="geometry" />
        </mxCell>
        <mxCell id="YmTnPPPusnQht9802NCu-17" style="edgeStyle=orthogonalEdgeStyle;rounded=0;orthogonalLoop=1;jettySize=auto;html=1;exitX=1;exitY=0.5;exitDx=0;exitDy=0;fontSize=9;" edge="1" parent="WIyWlLk6GJQsqaUBKTNV-1" source="YmTnPPPusnQht9802NCu-14" target="YmTnPPPusnQht9802NCu-18">
          <mxGeometry relative="1" as="geometry">
            <mxPoint x="508.7299999999998" y="87.46349999999995" as="targetPoint" />
          </mxGeometry>
        </mxCell>
        <mxCell id="YmTnPPPusnQht9802NCu-14" value="" style="shape=image;verticalLabelPosition=bottom;labelBackgroundColor=default;verticalAlign=top;aspect=fixed;imageAspect=0;image=https://nerdytechy.com/wp-content/uploads/2021/05/raspberry-pi-4-gpio-pinout.png;rotation=-90;clipPath=inset(3.67% 33.22% 25.67% 43.29%);" vertex="1" parent="WIyWlLk6GJQsqaUBKTNV-1">
          <mxGeometry x="400" y="20" width="85.84905660377358" height="520" as="geometry" />
        </mxCell>
        <mxCell id="YmTnPPPusnQht9802NCu-15" value="&lt;b&gt;Pinout&lt;/b&gt;" style="text;html=1;strokeColor=none;fillColor=none;align=center;verticalAlign=middle;whiteSpace=wrap;rounded=0;fontSize=9;" vertex="1" parent="WIyWlLk6GJQsqaUBKTNV-1">
          <mxGeometry x="430" y="200" width="60" height="30" as="geometry" />
        </mxCell>
        <mxCell id="YmTnPPPusnQht9802NCu-108" style="rounded=1;orthogonalLoop=1;jettySize=auto;html=1;exitX=1;exitY=0.8;exitDx=0;exitDy=0;entryX=0.454;entryY=0.876;entryDx=0;entryDy=0;entryPerimeter=0;shadow=1;strokeWidth=1;fontSize=12;shape=link;" edge="1" parent="WIyWlLk6GJQsqaUBKTNV-1" source="YmTnPPPusnQht9802NCu-18" target="YmTnPPPusnQht9802NCu-21">
          <mxGeometry relative="1" as="geometry" />
        </mxCell>
        <mxCell id="YmTnPPPusnQht9802NCu-18" value="" style="shape=mxgraph.electrical.electro-mechanical.singleSwitch;aspect=fixed;elSwitchState=off;fontSize=9;" vertex="1" parent="WIyWlLk6GJQsqaUBKTNV-1">
          <mxGeometry x="440" y="20" width="75" height="20" as="geometry" />
        </mxCell>
        <mxCell id="YmTnPPPusnQht9802NCu-20" style="edgeStyle=orthogonalEdgeStyle;rounded=0;orthogonalLoop=1;jettySize=auto;html=1;entryX=0.097;entryY=0.755;entryDx=0;entryDy=0;entryPerimeter=0;fontSize=9;" edge="1" parent="WIyWlLk6GJQsqaUBKTNV-1" source="YmTnPPPusnQht9802NCu-19" target="YmTnPPPusnQht9802NCu-18">
          <mxGeometry relative="1" as="geometry" />
        </mxCell>
        <mxCell id="YmTnPPPusnQht9802NCu-19" value="" style="shape=image;html=1;verticalAlign=top;verticalLabelPosition=bottom;labelBackgroundColor=#ffffff;imageAspect=0;aspect=fixed;image=https://cdn3.iconfinder.com/data/icons/energy-and-power-glyph-24-px/24/Automotive_battery_battery_charging_car_battery_truck_battery_vehicle_battery-128.png;fontSize=9;" vertex="1" parent="WIyWlLk6GJQsqaUBKTNV-1">
          <mxGeometry x="-20" y="-30" width="128" height="128" as="geometry" />
        </mxCell>
        <mxCell id="YmTnPPPusnQht9802NCu-21" value="" style="html=1;verticalLabelPosition=bottom;align=center;labelBackgroundColor=#ffffff;verticalAlign=top;strokeWidth=2;strokeColor=#0080F0;shadow=0;dashed=0;shape=mxgraph.ios7.icons.lightbulb;fontSize=9;" vertex="1" parent="WIyWlLk6GJQsqaUBKTNV-1">
          <mxGeometry x="564.85" y="11" width="30" height="29" as="geometry" />
        </mxCell>
        <mxCell id="YmTnPPPusnQht9802NCu-22" value="" style="endArrow=none;dashed=1;html=1;strokeWidth=3;rounded=0;fontSize=9;" edge="1" parent="WIyWlLk6GJQsqaUBKTNV-1">
          <mxGeometry width="50" height="50" relative="1" as="geometry">
            <mxPoint x="-80" y="400" as="sourcePoint" />
            <mxPoint x="930" y="400" as="targetPoint" />
          </mxGeometry>
        </mxCell>
        <mxCell id="YmTnPPPusnQht9802NCu-23" value="&lt;font style=&quot;font-size: 24px;&quot;&gt;HARDWARE&lt;/font&gt;" style="text;html=1;strokeColor=none;fillColor=none;align=center;verticalAlign=middle;whiteSpace=wrap;rounded=0;fontSize=9;" vertex="1" parent="WIyWlLk6GJQsqaUBKTNV-1">
          <mxGeometry x="-45" y="210" width="140" height="80" as="geometry" />
        </mxCell>
        <mxCell id="YmTnPPPusnQht9802NCu-24" value="&lt;font style=&quot;font-size: 24px;&quot;&gt;SOFTWARE ARCHITECTURE&lt;/font&gt;" style="text;html=1;strokeColor=none;fillColor=none;align=center;verticalAlign=middle;whiteSpace=wrap;rounded=0;fontSize=9;" vertex="1" parent="WIyWlLk6GJQsqaUBKTNV-1">
          <mxGeometry x="-70" y="515" width="190" height="80" as="geometry" />
        </mxCell>
        <mxCell id="YmTnPPPusnQht9802NCu-25" value="&lt;font style=&quot;font-size: 18px;&quot;&gt;Power Source&lt;/font&gt;" style="text;html=1;strokeColor=none;fillColor=none;align=center;verticalAlign=middle;whiteSpace=wrap;rounded=0;fontSize=24;" vertex="1" parent="WIyWlLk6GJQsqaUBKTNV-1">
          <mxGeometry x="-20" y="80" width="130" height="30" as="geometry" />
        </mxCell>
        <mxCell id="YmTnPPPusnQht9802NCu-26" value="&lt;font size=&quot;1&quot;&gt;Digital Sensor Reading (16 bits) &quot;For Example&quot;&lt;/font&gt;" style="text;html=1;strokeColor=none;fillColor=none;align=center;verticalAlign=middle;whiteSpace=wrap;rounded=0;fontSize=18;" vertex="1" parent="WIyWlLk6GJQsqaUBKTNV-1">
          <mxGeometry x="320" y="640" width="170" height="40" as="geometry" />
        </mxCell>
        <mxCell id="YmTnPPPusnQht9802NCu-29" value="" style="rounded=1;whiteSpace=wrap;html=1;fontSize=12;glass=0;strokeWidth=1;shadow=0;" vertex="1" parent="WIyWlLk6GJQsqaUBKTNV-1">
          <mxGeometry x="160" y="450" width="600" height="190" as="geometry" />
        </mxCell>
        <mxCell id="YmTnPPPusnQht9802NCu-45" style="edgeStyle=orthogonalEdgeStyle;rounded=0;orthogonalLoop=1;jettySize=auto;html=1;exitX=0.5;exitY=0;exitDx=0;exitDy=0;entryX=0.5;entryY=1;entryDx=0;entryDy=0;dashed=1;strokeWidth=1;fontSize=18;" edge="1" parent="WIyWlLk6GJQsqaUBKTNV-1" source="YmTnPPPusnQht9802NCu-30" target="YmTnPPPusnQht9802NCu-31">
          <mxGeometry relative="1" as="geometry" />
        </mxCell>
        <mxCell id="YmTnPPPusnQht9802NCu-54" style="edgeStyle=orthogonalEdgeStyle;shape=link;rounded=0;orthogonalLoop=1;jettySize=auto;html=1;exitX=1;exitY=0.5;exitDx=0;exitDy=0;entryX=0.009;entryY=0.853;entryDx=0;entryDy=0;entryPerimeter=0;dashed=1;strokeWidth=2;fontSize=18;" edge="1" parent="WIyWlLk6GJQsqaUBKTNV-1" source="YmTnPPPusnQht9802NCu-30" target="YmTnPPPusnQht9802NCu-34">
          <mxGeometry relative="1" as="geometry" />
        </mxCell>
        <mxCell id="YmTnPPPusnQht9802NCu-30" value="Micro Controller Layer" style="rounded=0;whiteSpace=wrap;html=1;fontSize=18;" vertex="1" parent="WIyWlLk6GJQsqaUBKTNV-1">
          <mxGeometry x="185" y="595" width="235" height="20" as="geometry" />
        </mxCell>
        <mxCell id="YmTnPPPusnQht9802NCu-46" style="edgeStyle=orthogonalEdgeStyle;rounded=0;orthogonalLoop=1;jettySize=auto;html=1;exitX=0.5;exitY=0;exitDx=0;exitDy=0;entryX=0.5;entryY=1;entryDx=0;entryDy=0;dashed=1;strokeWidth=1;fontSize=18;" edge="1" parent="WIyWlLk6GJQsqaUBKTNV-1" source="YmTnPPPusnQht9802NCu-31" target="YmTnPPPusnQht9802NCu-32">
          <mxGeometry relative="1" as="geometry" />
        </mxCell>
        <mxCell id="YmTnPPPusnQht9802NCu-53" style="edgeStyle=orthogonalEdgeStyle;shape=link;rounded=0;orthogonalLoop=1;jettySize=auto;html=1;exitX=1;exitY=0.5;exitDx=0;exitDy=0;entryX=0;entryY=0.647;entryDx=0;entryDy=0;entryPerimeter=0;dashed=1;strokeWidth=2;fontSize=18;" edge="1" parent="WIyWlLk6GJQsqaUBKTNV-1" source="YmTnPPPusnQht9802NCu-31" target="YmTnPPPusnQht9802NCu-34">
          <mxGeometry relative="1" as="geometry" />
        </mxCell>
        <mxCell id="YmTnPPPusnQht9802NCu-31" value="Sensor Library" style="rounded=0;whiteSpace=wrap;html=1;fontSize=18;" vertex="1" parent="WIyWlLk6GJQsqaUBKTNV-1">
          <mxGeometry x="185" y="560" width="235" height="20" as="geometry" />
        </mxCell>
        <mxCell id="YmTnPPPusnQht9802NCu-47" style="edgeStyle=orthogonalEdgeStyle;rounded=0;orthogonalLoop=1;jettySize=auto;html=1;exitX=0.5;exitY=0;exitDx=0;exitDy=0;entryX=0.5;entryY=1;entryDx=0;entryDy=0;dashed=1;strokeWidth=1;fontSize=18;" edge="1" parent="WIyWlLk6GJQsqaUBKTNV-1" source="YmTnPPPusnQht9802NCu-32" target="YmTnPPPusnQht9802NCu-33">
          <mxGeometry relative="1" as="geometry" />
        </mxCell>
        <mxCell id="YmTnPPPusnQht9802NCu-52" style="edgeStyle=orthogonalEdgeStyle;shape=link;rounded=0;orthogonalLoop=1;jettySize=auto;html=1;exitX=1;exitY=0.5;exitDx=0;exitDy=0;entryX=0.006;entryY=0.383;entryDx=0;entryDy=0;entryPerimeter=0;dashed=1;strokeWidth=2;fontSize=18;" edge="1" parent="WIyWlLk6GJQsqaUBKTNV-1" source="YmTnPPPusnQht9802NCu-32" target="YmTnPPPusnQht9802NCu-34">
          <mxGeometry relative="1" as="geometry" />
        </mxCell>
        <mxCell id="YmTnPPPusnQht9802NCu-32" value="Hardware Abstraction Layer" style="rounded=0;whiteSpace=wrap;html=1;fontSize=18;" vertex="1" parent="WIyWlLk6GJQsqaUBKTNV-1">
          <mxGeometry x="185" y="515" width="235" height="20" as="geometry" />
        </mxCell>
        <mxCell id="YmTnPPPusnQht9802NCu-51" style="edgeStyle=orthogonalEdgeStyle;rounded=0;orthogonalLoop=1;jettySize=auto;html=1;exitX=1;exitY=0.5;exitDx=0;exitDy=0;entryX=0.038;entryY=0.146;entryDx=0;entryDy=0;entryPerimeter=0;dashed=1;strokeWidth=2;fontSize=18;shape=link;" edge="1" parent="WIyWlLk6GJQsqaUBKTNV-1" source="YmTnPPPusnQht9802NCu-33" target="YmTnPPPusnQht9802NCu-34">
          <mxGeometry relative="1" as="geometry" />
        </mxCell>
        <mxCell id="YmTnPPPusnQht9802NCu-33" value="Lighting Application" style="rounded=0;whiteSpace=wrap;html=1;fontSize=18;" vertex="1" parent="WIyWlLk6GJQsqaUBKTNV-1">
          <mxGeometry x="185" y="475" width="235" height="20" as="geometry" />
        </mxCell>
        <mxCell id="YmTnPPPusnQht9802NCu-34" value="Scheduler" style="rounded=0;whiteSpace=wrap;html=1;fontSize=18;" vertex="1" parent="WIyWlLk6GJQsqaUBKTNV-1">
          <mxGeometry x="485.85" y="460" width="254.15" height="170" as="geometry" />
        </mxCell>
        <mxCell id="YmTnPPPusnQht9802NCu-55" value="" style="shape=image;html=1;verticalAlign=top;verticalLabelPosition=bottom;labelBackgroundColor=#ffffff;imageAspect=0;aspect=fixed;image=https://cdn4.iconfinder.com/data/icons/evil-icons-user-interface/64/download-128.png;fontSize=18;" vertex="1" parent="WIyWlLk6GJQsqaUBKTNV-1">
          <mxGeometry x="516.85" y="460" width="48" height="48" as="geometry" />
        </mxCell>
        <mxCell id="YmTnPPPusnQht9802NCu-56" value="&lt;font style=&quot;font-size: 8px;&quot;&gt;Call periodically each stack of library according to configuration of period taking into consideration sensors reading constraints&lt;/font&gt;" style="text;html=1;strokeColor=none;fillColor=none;align=center;verticalAlign=middle;whiteSpace=wrap;rounded=0;fontSize=8;" vertex="1" parent="WIyWlLk6GJQsqaUBKTNV-1">
          <mxGeometry x="560" y="481" width="170" height="59" as="geometry" />
        </mxCell>
        <mxCell id="YmTnPPPusnQht9802NCu-58" value="&lt;ul style=&quot;font-size: 12px;&quot;&gt;&lt;li&gt;Initialize Lux state&lt;/li&gt;&lt;li&gt;Get lux value after applying hysteresis&amp;nbsp;&lt;/li&gt;&lt;li&gt;Request to switch Led assigned Output pin On/Off based on configured threshold&lt;/li&gt;&lt;/ul&gt;" style="rounded=0;whiteSpace=wrap;html=1;fontSize=18;" vertex="1" parent="WIyWlLk6GJQsqaUBKTNV-1">
          <mxGeometry x="80" y="800" width="230" height="140" as="geometry" />
        </mxCell>
        <mxCell id="YmTnPPPusnQht9802NCu-59" value="&lt;ul style=&quot;font-size: 11px;&quot;&gt;&lt;li&gt;Validate readings of sensors&lt;/li&gt;&lt;li&gt;Apply threshold counter for readings&lt;/li&gt;&lt;/ul&gt;" style="rounded=0;whiteSpace=wrap;html=1;fontSize=18;" vertex="1" parent="WIyWlLk6GJQsqaUBKTNV-1">
          <mxGeometry x="79.99999999999997" y="950" width="230" height="140" as="geometry" />
        </mxCell>
        <mxCell id="YmTnPPPusnQht9802NCu-60" value="&lt;ul style=&quot;font-size: 12px;&quot;&gt;&lt;li&gt;Setup Sensor Power&lt;/li&gt;&lt;li&gt;Setup Sensor Reading Configuration&lt;/li&gt;&lt;li&gt;Send (Read/Write) receiving commands&lt;/li&gt;&lt;li&gt;Read Digital raw value&amp;nbsp;&lt;/li&gt;&lt;/ul&gt;" style="rounded=0;whiteSpace=wrap;html=1;fontSize=18;" vertex="1" parent="WIyWlLk6GJQsqaUBKTNV-1">
          <mxGeometry x="79.99999999999997" y="1100" width="230" height="140" as="geometry" />
        </mxCell>
        <mxCell id="YmTnPPPusnQht9802NCu-61" value="" style="endArrow=none;dashed=1;html=1;strokeWidth=3;rounded=0;fontSize=9;" edge="1" parent="WIyWlLk6GJQsqaUBKTNV-1">
          <mxGeometry width="50" height="50" relative="1" as="geometry">
            <mxPoint x="-80" y="760" as="sourcePoint" />
            <mxPoint x="940" y="760" as="targetPoint" />
          </mxGeometry>
        </mxCell>
        <mxCell id="YmTnPPPusnQht9802NCu-62" value="&lt;font style=&quot;font-size: 24px;&quot;&gt;SOFTWARE COMPONENTS&lt;/font&gt;" style="text;html=1;strokeColor=none;fillColor=none;align=center;verticalAlign=middle;whiteSpace=wrap;rounded=0;fontSize=9;" vertex="1" parent="WIyWlLk6GJQsqaUBKTNV-1">
          <mxGeometry x="-120" y="900" width="190" height="80" as="geometry" />
        </mxCell>
        <mxCell id="YmTnPPPusnQht9802NCu-63" value="&lt;p style=&quot;line-height: 100%;&quot;&gt;&lt;/p&gt;&lt;div&gt;&lt;span style=&quot;font-size: 12px;&quot;&gt;&lt;br&gt;&lt;/span&gt;&lt;/div&gt;&lt;p&gt;&lt;/p&gt;" style="rounded=0;whiteSpace=wrap;html=1;fontSize=18;align=left;" vertex="1" parent="WIyWlLk6GJQsqaUBKTNV-1">
          <mxGeometry x="79.99999999999997" y="1250" width="230" height="140" as="geometry" />
        </mxCell>
        <mxCell id="YmTnPPPusnQht9802NCu-93" value="Bottom" style="endArrow=oval;html=1;fontSize=16;fontColor=#10739E;endFill=0;endSize=24;strokeWidth=5;labelBackgroundColor=none;verticalAlign=top;fontStyle=1;strokeColor=#10739E;rounded=0;dashed=1;shape=link;" edge="1" parent="WIyWlLk6GJQsqaUBKTNV-1">
          <mxGeometry x="-1" y="-9" relative="1" as="geometry">
            <mxPoint x="360" y="1370" as="sourcePoint" />
            <mxPoint x="360" y="800" as="targetPoint" />
            <mxPoint x="-9" y="9" as="offset" />
          </mxGeometry>
        </mxCell>
        <mxCell id="YmTnPPPusnQht9802NCu-94" value="&lt;span style=&quot;color: rgb(16, 115, 158); font-family: Helvetica; font-size: 16px; font-style: normal; font-variant-ligatures: normal; font-variant-caps: normal; font-weight: 700; letter-spacing: normal; orphans: 2; text-align: center; text-indent: 0px; text-transform: none; widows: 2; word-spacing: 0px; -webkit-text-stroke-width: 0px; background-color: rgb(248, 249, 250); text-decoration-thickness: initial; text-decoration-style: initial; text-decoration-color: initial; float: none; display: inline !important;&quot;&gt;Up&lt;/span&gt;" style="text;whiteSpace=wrap;html=1;fontSize=8;" vertex="1" parent="WIyWlLk6GJQsqaUBKTNV-1">
          <mxGeometry x="350" y="770" width="90" height="40" as="geometry" />
        </mxCell>
        <mxCell id="YmTnPPPusnQht9802NCu-95" value="Micro Controller Layer&amp;nbsp;" style="html=1;shape=mxgraph.infographic.ribbonDoubleFolded;dx=25;dy=15;fillColor=#10739E;strokeColor=none;align=center;verticalAlign=middle;fontColor=#ffffff;fontSize=14;fontStyle=1;" vertex="1" parent="WIyWlLk6GJQsqaUBKTNV-1">
          <mxGeometry x="310" y="1260" width="243" height="70" as="geometry" />
        </mxCell>
        <mxCell id="YmTnPPPusnQht9802NCu-96" value="Sensor Layer" style="html=1;shape=mxgraph.infographic.ribbonDoubleFolded;dx=25;dy=15;fillColor=#10739E;strokeColor=none;align=center;verticalAlign=middle;fontColor=#ffffff;fontSize=14;fontStyle=1;" vertex="1" parent="WIyWlLk6GJQsqaUBKTNV-1">
          <mxGeometry x="310" y="1110" width="250" height="70" as="geometry" />
        </mxCell>
        <mxCell id="YmTnPPPusnQht9802NCu-97" value="Hardware Abstraction Layer" style="html=1;shape=mxgraph.infographic.ribbonDoubleFolded;dx=25;dy=15;fillColor=#10739E;strokeColor=none;align=center;verticalAlign=middle;fontColor=#ffffff;fontSize=14;fontStyle=1;" vertex="1" parent="WIyWlLk6GJQsqaUBKTNV-1">
          <mxGeometry x="310" y="960" width="250" height="70" as="geometry" />
        </mxCell>
        <mxCell id="YmTnPPPusnQht9802NCu-98" value="Lighting Application" style="html=1;shape=mxgraph.infographic.ribbonDoubleFolded;dx=25;dy=15;fillColor=#10739E;strokeColor=none;align=center;verticalAlign=middle;fontColor=#ffffff;fontSize=14;fontStyle=1;" vertex="1" parent="WIyWlLk6GJQsqaUBKTNV-1">
          <mxGeometry x="310" y="810" width="250" height="70" as="geometry" />
        </mxCell>
        <mxCell id="YmTnPPPusnQht9802NCu-99" value="&lt;ul style=&quot;font-size: 8px;&quot;&gt;&lt;li style=&quot;font-size: 8px;&quot;&gt;&lt;font style=&quot;font-size: 8px;&quot;&gt;Set PI GPIO pins&lt;/font&gt;&lt;/li&gt;&lt;li style=&quot;font-size: 8px;&quot;&gt;&lt;font style=&quot;font-size: 8px;&quot;&gt;Read/Write Pins&lt;/font&gt;&lt;/li&gt;&lt;/ul&gt;" style="rounded=0;whiteSpace=wrap;html=1;fontSize=8;align=left;fillColor=#fff2cc;strokeColor=#d6b656;" vertex="1" parent="WIyWlLk6GJQsqaUBKTNV-1">
          <mxGeometry x="80" y="1270" width="110" height="100" as="geometry" />
        </mxCell>
        <mxCell id="YmTnPPPusnQht9802NCu-100" value="&lt;div&gt;&lt;div&gt;&lt;br&gt;&lt;/div&gt;&lt;ul&gt;&lt;li&gt;Set I2C Bus&lt;/li&gt;&lt;li&gt;Send/Receive I2C Bus Protocol Commands&lt;/li&gt;&lt;/ul&gt;&lt;/div&gt;" style="rounded=0;whiteSpace=wrap;html=1;fontSize=8;align=left;fillColor=#fff2cc;strokeColor=#d6b656;" vertex="1" parent="WIyWlLk6GJQsqaUBKTNV-1">
          <mxGeometry x="200" y="1270" width="110" height="100" as="geometry" />
        </mxCell>
        <mxCell id="YmTnPPPusnQht9802NCu-102" value="&lt;b&gt;Input/Output&lt;/b&gt;" style="text;html=1;strokeColor=none;fillColor=none;align=center;verticalAlign=middle;whiteSpace=wrap;rounded=0;fontSize=8;" vertex="1" parent="WIyWlLk6GJQsqaUBKTNV-1">
          <mxGeometry x="110" y="1260" width="60" height="10" as="geometry" />
        </mxCell>
        <mxCell id="YmTnPPPusnQht9802NCu-103" value="&lt;b&gt;Communication&lt;/b&gt;" style="text;html=1;strokeColor=none;fillColor=none;align=center;verticalAlign=middle;whiteSpace=wrap;rounded=0;fontSize=8;" vertex="1" parent="WIyWlLk6GJQsqaUBKTNV-1">
          <mxGeometry x="230" y="1260" width="60" height="10" as="geometry" />
        </mxCell>
        <mxCell id="YmTnPPPusnQht9802NCu-107" value="Relay/Switch" style="text;html=1;strokeColor=none;fillColor=none;align=center;verticalAlign=middle;whiteSpace=wrap;rounded=0;fontSize=12;" vertex="1" parent="WIyWlLk6GJQsqaUBKTNV-1">
          <mxGeometry x="440" width="60" height="30" as="geometry" />
        </mxCell>
        <mxCell id="YmTnPPPusnQht9802NCu-109" value="LED" style="text;html=1;strokeColor=none;fillColor=none;align=center;verticalAlign=middle;whiteSpace=wrap;rounded=0;fontSize=12;" vertex="1" parent="WIyWlLk6GJQsqaUBKTNV-1">
          <mxGeometry x="565" y="50" width="60" height="30" as="geometry" />
        </mxCell>
      </root>
    </mxGraphModel>
  </diagram>
</mxfile>
